<svg width="800" height="800" viewBox="0 0 800 800" fill="none" xmlns="http://www.w3.org/2000/svg">
<g clip-path="url(#clip0_2614_3105)">
<path d="M453.111 259.693L477.084 278.689L525.032 316.68C573.751 355.284 573.751 430.042 525.032 468.646" stroke="#7BC4EC" stroke-width="58.7"/>
<path d="M426.138 547.003L435.128 539.878L453.111 525.634L525.031 468.646L525.394 468.359C540.769 456.176 552.062 439.596 557.766 420.828L558.045 419.912L561.189 402.096" stroke="#3979C3" stroke-width="58.7"/>
<path d="M453.11 259.695L429.135 240.7L392.596 211.748C329.817 162.005 237.345 206.716 237.345 286.813" stroke="#F0BA43" stroke-width="58.7"/>
<path d="M237.345 415.721V286.819V284.717" stroke="#D73274" stroke-width="58.7"/>
<path fill-rule="evenodd" clip-rule="evenodd" d="M356.081 565.074V639.954L447.361 567.629L410.913 521.628L356.081 565.074ZM208.225 605.715L266.69 547.248V502.707V413.623H208V502.707V599.651C208 601.701 208.076 603.723 208.225 605.715Z" fill="#87267D"/>
<path fill-rule="evenodd" clip-rule="evenodd" d="M356.081 639.851L447.345 567.637L410.927 521.613L356.081 565.011V639.851Z" fill="#8BC849"/>
<path fill-rule="evenodd" clip-rule="evenodd" d="M347.638 272.417L478.352 376.877C487.803 384.429 487.803 398.798 478.352 406.35L356.08 504.062V568.46L509.757 445.649C544.409 417.958 544.409 365.269 509.757 337.578L379.043 233.118C333.747 196.92 266.69 229.171 266.69 287.154V391.615V489.606V547.248L316.996 496.942V489.606V391.615V287.154C316.996 271.34 335.284 262.545 347.638 272.417Z" fill="#42106D"/>
</g>
<defs>
<clipPath id="clip0_2614_3105">
<rect width="383.582" height="480" fill="white" transform="translate(208 160)"/>
</clipPath>
</defs>
</svg>
